<svg width="211" height="143" viewBox="0 0 211 143" fill="none" xmlns="http://www.w3.org/2000/svg">
<path opacity="0.1" d="M7.17514 136.276V139.146L1.43457 138.514V136.276H7.17514Z" fill="white"/>
<path d="M11.8135 97.1266L44.8973 91.7109V123.219L13.4634 121.564L11.8135 97.1266Z" fill="#E0E0E1"/>
<path opacity="0.05" d="M11.8135 97.1266L44.8973 91.7109V123.219L13.4634 121.564L11.8135 97.1266Z" fill="black"/>
<path d="M44.8984 91.7109L84.2839 94.6975L82.1044 122.117L44.8984 123.219V91.7109Z" fill="#E0E0E1"/>
<path opacity="0.1" d="M44.8984 91.7109L84.2839 94.6975L82.1044 122.117L44.8984 123.219V91.7109Z" fill="black"/>
<path d="M56.972 82.2583L44.8984 91.8751L84.1682 94.8616L90.5856 85.0202L56.972 82.2583Z" fill="#E0E0E1"/>
<path d="M0 86.7015L29.6761 83.0464L44.8994 91.7988L11.9355 97.2252L0 86.7015Z" fill="#E0E0E1"/>
<path d="M51.9866 99.9818V142.912L36.5516 141.319L29.8375 140.629L27.792 140.414L21.0822 139.721L11.8135 138.764V97.2251L44.7591 99.4821L51.9866 99.9818Z" fill="#E0E0E1"/>
<path d="M84.2834 94.8618V136.678L71.9102 139.066L65.8927 140.228L51.9873 142.912V100.033L84.2834 94.8618Z" fill="#E0E0E1"/>
<path opacity="0.05" d="M84.2834 94.8618V136.678L71.9102 139.066L65.8927 140.228L51.9873 142.912V100.033L84.2834 94.8618Z" fill="black"/>
<path d="M0 106.134L11.9041 97.2251L51.9888 99.9428L46.088 109.828L0 106.134Z" fill="#E0E0E1"/>
<path opacity="0.1" d="M0 106.134L11.9041 97.2251L51.9888 99.9428L46.088 109.828L0 106.134Z" fill="white"/>
<path d="M84.1356 94.8618L51.9873 100.15L62.4506 109.828L96.8867 103.863L84.1356 94.8618Z" fill="#E0E0E1"/>
<path opacity="0.1" d="M84.1356 94.8618L51.9873 100.15L62.4506 109.828L96.8867 103.863L84.1356 94.8618Z" fill="white"/>
<path opacity="0.1" d="M71.681 138.614L66.167 139.761V134.083L71.3319 132.672L71.681 138.614Z" fill="white"/>
<path opacity="0.1" d="M78.7698 137.826L73.2559 138.974V130.145L78.4208 128.733L78.7698 137.826Z" fill="white"/>
<path fill-rule="evenodd" clip-rule="evenodd" d="M24.9754 119.061C24.2951 121.009 22.1871 122.43 19.692 122.43C18.5962 122.43 17.5751 122.156 16.7168 121.684C17.2446 123.481 18.9062 124.793 20.8742 124.793C23.2669 124.793 25.2066 122.853 25.2066 120.461C25.2066 119.971 25.1252 119.5 24.9754 119.061Z" fill="#E0E0E1"/>
<mask id="mask0_3212_1195" style="mask-type:alpha" maskUnits="userSpaceOnUse" x="16" y="119" width="10" height="6">
<path fill-rule="evenodd" clip-rule="evenodd" d="M24.9754 119.061C24.2951 121.009 22.1871 122.43 19.692 122.43C18.5962 122.43 17.5751 122.156 16.7168 121.684C17.2446 123.481 18.9062 124.793 20.8742 124.793C23.2669 124.793 25.2066 122.853 25.2066 120.461C25.2066 119.971 25.1252 119.5 24.9754 119.061Z" fill="white"/>
</mask>
<g mask="url(#mask0_3212_1195)">
<circle cx="22.0539" cy="124.007" r="1.57542" fill="#43464E"/>
<path d="M17.0648 123.912L16.9997 123.912L19.2009 124.85C19.7285 125.074 20.2923 125.19 20.8588 125.19L21.6158 125.19C22.7687 125.19 23.8023 124.522 24.2779 123.468L24.2779 123.318C24.2779 123.246 24.2251 123.185 24.155 123.174C23.7238 123.109 23.2865 123.147 22.8778 123.285L22.4993 123.412L21.3186 123.707C20.7797 123.842 20.214 123.848 19.6655 123.724L19.2043 123.621C18.7636 123.521 18.3072 123.563 17.8984 123.74C17.6361 123.853 17.3527 123.912 17.0648 123.912Z" fill="#4D9AF5"/>
</g>
<path fill-rule="evenodd" clip-rule="evenodd" d="M35.9384 119.776C36.4242 121.809 38.4241 123.436 40.9403 123.647C41.996 123.735 43.0036 123.563 43.8779 123.19C43.2936 124.892 41.6793 126.115 39.7794 126.115C37.3866 126.115 35.447 124.175 35.447 121.782C35.447 121.059 35.6245 120.376 35.9384 119.776Z" fill="#E0E0E1"/>
<mask id="mask1_3212_1195" style="mask-type:alpha" maskUnits="userSpaceOnUse" x="35" y="119" width="10" height="8">
<path fill-rule="evenodd" clip-rule="evenodd" d="M36.2401 119.28C36.3728 121.771 38.435 123.751 40.9596 123.751C42.1313 123.751 43.2034 123.324 44.0293 122.618C43.6395 124.61 41.8841 126.114 39.7776 126.114C37.3849 126.114 35.4452 124.174 35.4452 121.782C35.4452 120.85 35.7394 119.986 36.2401 119.28Z" fill="white"/>
</mask>
<g mask="url(#mask1_3212_1195)">
<circle r="1.57542" transform="matrix(-1 0 0 1 38.5974 125.326)" fill="#43464E"/>
<path d="M41.9032 125.327L42.5012 125.351C43.3387 125.385 44 126.074 44 126.912H40.4493C39.5598 126.912 38.6865 126.675 37.9192 126.225L35 124.512C35 123.799 35.7702 123.352 36.3892 123.706L38.0326 124.645C38.3389 124.82 38.6855 124.912 39.0383 124.912H39.9066C40.2989 124.912 40.6878 124.984 41.0542 125.124L41.2111 125.184C41.4325 125.269 41.6663 125.317 41.9032 125.327Z" fill="#4D9AF5"/>
</g>
<path fill-rule="evenodd" clip-rule="evenodd" d="M35.4053 132.205C34.1882 129.969 31.9489 128.414 29.3162 128.275C26.6796 128.137 24.2863 129.452 22.8417 131.552C23.9122 129.038 26.4688 127.337 29.3565 127.489C32.2407 127.641 34.6022 129.596 35.4053 132.205Z" fill="#E0E0E1"/>
<path fill-rule="evenodd" clip-rule="evenodd" d="M36.3489 132.428C36.1139 132.201 35.7796 132.099 35.4535 132.186C35.1348 132.272 34.8999 132.518 34.8051 132.822C34.8412 132.483 35.0811 132.184 35.4303 132.091C35.7864 131.995 36.1503 132.141 36.3489 132.428Z" fill="#E0E0E1"/>
<path fill-rule="evenodd" clip-rule="evenodd" d="M22.0612 131.574C22.3443 131.423 22.6874 131.414 22.9753 131.58C23.2673 131.749 23.4313 132.057 23.4378 132.383C23.5005 132.04 23.3461 131.679 23.0266 131.494C22.7109 131.312 22.3269 131.355 22.0612 131.574Z" fill="#E0E0E1"/>
<path d="M114.956 39.0204L114.958 39.022C114.961 39.0273 114.961 39.031 114.964 39.0363C114.985 39.0936 115.022 39.1392 115.067 39.1743C115.102 39.2014 115.145 39.2217 115.191 39.234C116.114 39.4528 117.086 39.4594 118.053 39.2786C118.06 39.2776 118.064 39.2807 118.069 39.2781C118.077 39.2771 118.084 39.2723 118.091 39.2713C119.985 38.9095 121.856 37.8279 123.29 36.1715C125.503 33.6188 125.06 31.6534 124.125 29.2057L125.778 27.2963C125.903 27.1527 125.891 26.9398 125.752 26.8181C125.602 26.6847 125.401 26.7148 125.276 26.8585L123.623 28.7679C121.079 28.1762 119.076 28.0091 116.862 30.564C114.685 33.0701 113.938 36.3866 114.956 39.0203L114.956 39.0204ZM115.194 36.519L116.901 36.5167L115.424 38.2206C115.272 37.6753 115.196 37.1042 115.194 36.519L115.194 36.519ZM115.671 33.8372L119.229 33.8331L117.492 35.837L115.212 35.8408C115.276 35.1748 115.429 34.5001 115.671 33.8372L115.671 33.8372ZM117.238 31.1587L121.551 31.152L119.816 33.1538L115.968 33.1592C116.297 32.4617 116.718 31.7852 117.238 31.1587L117.238 31.1587ZM120.846 37.4146L120.318 33.5918L122.055 31.5879L122.648 35.8759C122.101 36.4816 121.492 36.9945 120.846 37.4146L120.846 37.4146ZM118.306 38.5392L117.992 36.2734L119.728 34.2695L120.217 37.8041C119.599 38.1375 118.955 38.386 118.306 38.5392L118.306 38.5392ZM115.926 38.6586L117.404 36.9526L117.639 38.6516C117.061 38.7309 116.487 38.7323 115.926 38.6587L115.926 38.6586ZM123.231 35.1693L122.642 30.9089L123.614 29.786C124.332 31.7316 124.603 33.2787 123.231 35.1693L123.231 35.1693ZM123.113 29.3519L122.141 30.4748L117.854 30.4816C119.536 28.8524 121.099 28.9079 123.113 29.3519L123.113 29.3519Z" fill="#E0E0E1"/>
<path d="M117.227 56.736L117.225 56.7379C117.219 56.7401 117.216 56.7403 117.21 56.7424C117.152 56.7604 117.104 56.7946 117.067 56.8377C117.038 56.8709 117.015 56.9132 117 56.9587C116.729 57.8671 116.667 58.8373 116.793 59.8127C116.793 59.8201 116.79 59.824 116.792 59.8295C116.793 59.8369 116.797 59.8442 116.798 59.8516C117.051 61.7631 118.024 63.693 119.596 65.2183C122.019 67.573 124.006 67.2435 126.503 66.4487L128.315 68.2079C128.452 68.3408 128.665 68.3409 128.794 68.2091C128.936 68.0673 128.917 67.8648 128.781 67.7319L126.969 65.9726C127.705 63.4664 127.985 61.4767 125.561 59.1203C123.183 56.8044 119.914 55.8696 117.227 56.7361L117.227 56.736ZM119.71 57.1162L119.616 58.8198L117.998 57.2483C118.552 57.128 119.126 57.0849 119.71 57.1161L119.71 57.1162ZM122.361 57.7452L122.162 61.2968L120.26 59.4489L120.387 57.1723C121.048 57.2741 121.713 57.4654 122.361 57.7452L122.361 57.7452ZM124.946 59.4623L124.707 63.7683L122.807 61.9222L123.021 58.0804C123.698 58.4483 124.35 58.9072 124.946 59.4623L124.946 59.4623ZM118.494 62.7073L122.341 62.3985L124.243 64.2464L119.928 64.5946C119.354 64.0141 118.877 63.3762 118.494 62.7073L118.494 62.7073ZM117.516 60.1074L119.796 59.9232L121.698 61.7711L118.141 62.0574C117.844 61.4214 117.632 60.7641 117.516 60.1075L117.516 60.1074ZM117.533 57.7246L119.152 59.2979L117.442 59.4356C117.396 58.8537 117.427 58.2808 117.533 57.7246L117.533 57.7246ZM120.6 65.2163L124.887 64.8715L125.953 65.9061C123.97 66.5117 122.41 66.6938 120.6 65.2163L120.6 65.2163ZM126.415 65.4303L125.349 64.3956L125.587 60.1158C127.117 61.8878 126.973 63.4448 126.415 65.4302L126.415 65.4303Z" fill="#E0E0E1"/>
<path d="M149.658 42.5933L149.658 42.5958C149.654 42.6007 149.652 42.6029 149.648 42.6077C149.61 42.6552 149.589 42.7103 149.582 42.767C149.577 42.8108 149.582 42.8585 149.595 42.9046C149.878 43.8093 150.368 44.6485 151.017 45.3873C151.022 45.3931 151.021 45.3983 151.026 45.4015C151.031 45.4073 151.039 45.4109 151.043 45.4167C152.322 46.8603 154.207 47.9168 156.363 48.3033C159.688 48.9022 161.152 47.5183 162.779 45.4638L165.265 45.91C165.452 45.944 165.629 45.8249 165.662 45.6433C165.701 45.4465 165.572 45.289 165.385 45.255L162.899 44.8087C162.108 42.3192 161.229 40.5123 157.902 39.9131C154.636 39.3215 151.403 40.3729 149.658 42.5933L149.658 42.5933ZM151.93 41.5205L152.804 42.9864L150.584 42.5868C150.976 42.1779 151.428 41.8212 151.93 41.5204L151.93 41.5205ZM154.48 40.5611L156.3 43.6173L153.69 43.1476L152.522 41.1892C153.128 40.9041 153.786 40.6911 154.48 40.5611L154.48 40.5611ZM157.583 40.5405L159.791 44.245L157.184 43.7756L155.214 40.4703C155.982 40.3967 156.779 40.4131 157.583 40.5405L157.583 40.5405ZM154.046 46.8367L157.064 44.431L159.673 44.9006L156.29 47.6006C155.49 47.4398 154.738 47.1776 154.046 46.8367L154.046 46.8367ZM151.782 45.2272L153.57 43.8003L156.18 44.27L153.39 46.495C152.788 46.1339 152.246 45.707 151.782 45.2273L151.782 45.2272ZM150.464 43.2421L152.686 43.642L151.345 44.7116C150.982 44.2549 150.688 43.7623 150.464 43.2421L150.464 43.2421ZM157.195 47.7406L160.557 45.0589L162.019 45.3214C160.713 46.9319 159.521 47.9547 157.195 47.7406L157.195 47.7406ZM162.136 44.6686L160.674 44.4061L158.48 40.7243C160.739 41.3384 161.49 42.7102 162.136 44.6686L162.136 44.6686Z" fill="#E0E0E1"/>
<path opacity="0.3" d="M84.4473 51.2631C84.4418 51.2656 84.434 51.2677 84.4296 51.2709C84.4279 51.2724 84.4267 51.2717 84.425 51.2732C84.4233 51.2746 84.4226 51.2759 84.4216 51.2761C84.4175 51.2803 84.4134 51.2845 84.4084 51.2889C84.4035 51.2943 84.3975 51.2991 84.3939 51.3052C84.3918 51.3088 84.3903 51.3113 84.3879 51.314C84.3872 51.3152 84.3853 51.3157 84.3855 51.3167C84.0519 51.933 83.8615 52.6202 83.8045 53.3343C83.8036 53.3387 83.8014 53.3423 83.8015 53.3464C83.8008 53.3517 83.8023 53.3575 83.8029 53.3635C83.6979 54.7668 84.1148 56.2719 85.0264 57.5635C86.2886 59.3497 88.062 60.1035 90.2973 59.8092L91.4126 61.3898C91.453 61.4469 91.534 61.4612 91.5921 61.4209C91.6378 61.3891 91.6564 61.3337 91.643 61.2838C91.6391 61.2694 91.6326 61.2567 91.6239 61.2436L90.5078 59.6643C91.2068 58.3396 91.3924 57.0465 91.0587 55.8009C90.8935 55.1844 90.6021 54.5801 90.185 53.9889C88.8015 52.0304 86.5625 50.9569 84.4811 51.2529C84.4792 51.2534 84.4784 51.2547 84.4762 51.2542L84.4665 51.2568C84.4601 51.2565 84.4538 51.2602 84.4473 51.263L84.4473 51.2631ZM86.4158 51.6156L85.976 53.2454L84.7303 51.4816C85.2899 51.4284 85.8594 51.4745 86.4158 51.6156L86.4158 51.6156ZM84.5192 51.6287L85.765 53.3925L84.0692 53.2438C84.1258 52.6759 84.2771 52.131 84.5192 51.6287L84.5192 51.6287ZM84.0507 53.4978L85.9571 53.6653L87.2698 55.5233L84.233 55.2574C84.0817 54.669 84.0206 54.0751 84.0506 53.4978L84.0507 53.4978ZM89.8995 54.1219L88.986 57.508L87.6732 55.65L88.4921 52.6154C89.0273 53.0124 89.5144 53.5025 89.9259 54.0726C89.9149 54.0858 89.9046 54.102 89.8995 54.1219L89.8995 54.1219ZM85.2516 57.3445C85.2323 57.3425 85.2135 57.3465 85.1955 57.3534C84.7961 56.7739 84.4982 56.1528 84.3057 55.5199L87.4622 55.7971L88.775 57.6551L85.2516 57.3445ZM85.3837 57.6117L88.9666 57.9259L90.1297 59.5719C88.1193 59.8028 86.5622 59.1589 85.3837 57.6116L85.3837 57.6117ZM90.342 59.4266L89.1797 57.7794L90.109 54.3355C91.1719 55.962 91.2501 57.6322 90.3421 59.4267L90.342 59.4266ZM88.2693 52.458C88.2683 52.4583 88.2683 52.4583 88.2686 52.4592L87.4811 55.3771L86.168 53.5181L86.6632 51.6861C87.221 51.8557 87.7634 52.1159 88.2693 52.4579L88.2693 52.458Z" fill="#E0E0E1"/>
<path opacity="0.3" d="M109.712 95.4118C109.71 95.4176 109.706 95.4248 109.706 95.4302C109.706 95.4324 109.705 95.4329 109.705 95.4351C109.705 95.4374 109.705 95.4387 109.704 95.4396C109.705 95.4454 109.705 95.4513 109.705 95.458C109.706 95.4652 109.705 95.4729 109.707 95.4796C109.709 95.4837 109.71 95.4864 109.71 95.49C109.71 95.4913 109.709 95.4931 109.71 95.4936C109.944 96.1543 110.326 96.7564 110.818 97.2775C110.82 97.2811 110.822 97.2851 110.825 97.2878C110.828 97.2919 110.833 97.2946 110.838 97.2982C111.809 98.317 113.205 99.0169 114.775 99.2066C116.946 99.4677 118.695 98.6575 119.975 96.8017L121.895 97.034C121.965 97.0424 122.03 96.9919 122.039 96.9218C122.046 96.8665 122.017 96.8156 121.971 96.792C121.958 96.7853 121.944 96.7816 121.929 96.7793L120.009 96.5483C119.494 95.1417 118.66 94.1369 117.512 93.5493C116.943 93.2585 116.3 93.0695 115.581 92.9826C113.201 92.6959 110.903 93.6372 109.727 95.3799C109.726 95.3817 109.727 95.3831 109.725 95.3844L109.72 95.3934C109.716 95.3978 109.714 95.405 109.712 95.4118L109.712 95.4118ZM111.293 94.1877L112.208 95.6068L110.064 95.3484C110.4 94.8976 110.816 94.5059 111.293 94.1877L111.293 94.1877ZM110.032 95.6036L112.175 95.862L110.928 97.0203C110.545 96.5977 110.242 96.12 110.031 95.6036L110.032 95.6036ZM111.104 97.2044L112.507 95.9024L114.765 96.1742L112.532 98.2489C111.994 97.9668 111.512 97.6138 111.104 97.2045L111.104 97.2044ZM115.489 93.2836L117.388 96.2316L115.13 95.9598L113.427 93.3177C114.081 93.1867 114.771 93.154 115.47 93.2309C115.472 93.248 115.477 93.2664 115.489 93.2836L115.489 93.2836ZM114.763 98.8927C114.749 98.9057 114.739 98.9223 114.732 98.9402C114.034 98.848 113.374 98.6526 112.775 98.3711L115.097 96.215L117.356 96.4869L114.763 98.8927ZM115.05 98.9738L117.685 96.5263L119.686 96.767C118.51 98.4133 116.988 99.1368 115.05 98.9737L115.05 98.9738ZM119.721 96.512L117.72 96.2699L115.788 93.2714C117.707 93.5733 118.999 94.6352 119.721 96.512L119.721 96.512ZM113.161 93.3774C113.161 93.3783 113.161 93.3783 113.162 93.3788L114.798 95.9194L112.539 95.6471L111.512 94.0514C112.011 93.7513 112.568 93.5234 113.161 93.3774L113.161 93.3774Z" fill="#E0E0E1"/>
<path opacity="0.3" d="M199.664 108.352C199.667 108.357 199.672 108.364 199.676 108.367C199.678 108.368 199.677 108.37 199.679 108.371C199.681 108.372 199.683 108.373 199.683 108.374C199.688 108.376 199.693 108.379 199.699 108.383C199.705 108.386 199.712 108.391 199.718 108.392C199.723 108.393 199.725 108.394 199.729 108.396C199.73 108.396 199.731 108.398 199.732 108.397C200.416 108.552 201.129 108.549 201.831 108.41C201.836 108.41 201.84 108.411 201.844 108.41C201.849 108.409 201.854 108.406 201.86 108.404C203.239 108.125 204.575 107.316 205.572 106.089C206.949 104.39 207.195 102.479 206.306 100.407L207.526 98.905C207.57 98.8507 207.561 98.7688 207.507 98.7238C207.464 98.6884 207.406 98.6855 207.361 98.7119C207.348 98.7195 207.338 98.7292 207.328 98.7412L206.11 100.243C204.645 99.9291 203.35 100.101 202.241 100.759C201.693 101.085 201.19 101.529 200.734 102.091C199.223 103.953 198.796 106.399 199.645 108.323C199.646 108.324 199.647 108.325 199.647 108.327L199.652 108.336C199.654 108.342 199.659 108.347 199.663 108.352L199.664 108.352ZM199.47 106.362L201.158 106.344L199.797 108.021C199.595 107.496 199.485 106.936 199.47 106.362L199.47 106.362ZM199.996 108.184L201.357 106.507L201.673 108.18C201.111 108.279 200.545 108.281 199.996 108.184L199.996 108.184ZM201.922 108.129L201.567 106.248L203 104.482L203.567 107.477C203.041 107.782 202.486 108.002 201.922 108.129L201.922 108.129ZM200.939 102.33L204.446 102.292L203.013 104.059L199.87 104.092C200.107 103.47 200.447 102.868 200.884 102.318C200.9 102.325 200.919 102.33 200.939 102.33L200.939 102.33ZM205.3 105.931C205.303 105.95 205.312 105.967 205.324 105.983C204.874 106.524 204.357 106.979 203.8 107.336L203.212 104.222L204.645 102.455L205.3 105.931ZM205.521 105.732L204.854 102.198L206.123 100.632C206.89 102.505 206.692 104.178 205.521 105.732L205.521 105.732ZM205.926 100.467L204.655 102.032L201.088 102.07C202.366 100.607 203.952 100.079 205.926 100.467L205.926 100.467ZM199.779 104.35C199.779 104.35 199.779 104.35 199.78 104.35L202.802 104.318L201.368 106.085L199.471 106.105C199.483 105.522 199.587 104.929 199.779 104.35L199.779 104.35Z" fill="#E0E0E1"/>
<path opacity="0.3" d="M120.196 3.84167C120.193 3.8468 120.187 3.85274 120.185 3.8578C120.184 3.85996 120.183 3.86003 120.182 3.86219C120.182 3.86434 120.182 3.86576 120.181 3.8665C120.18 3.87223 120.179 3.87796 120.177 3.88443C120.176 3.89158 120.173 3.89879 120.173 3.90587C120.174 3.91011 120.174 3.91294 120.173 3.91651C120.173 3.91793 120.172 3.91941 120.173 3.92009C120.222 4.6192 120.43 5.30116 120.765 5.93425C120.767 5.93842 120.767 5.94267 120.769 5.9461C120.772 5.95094 120.776 5.95497 120.78 5.95975C121.445 7.20002 122.604 8.24608 124.067 8.84639C126.091 9.67574 127.991 9.35973 129.719 7.91136L131.509 8.64613C131.573 8.67266 131.65 8.64122 131.677 8.57607C131.698 8.52468 131.684 8.46799 131.646 8.43304C131.635 8.42296 131.623 8.41578 131.609 8.40941L129.819 7.67607C129.698 6.18331 129.16 4.99267 128.21 4.12095C127.74 3.68949 127.169 3.336 126.5 3.06119C124.281 2.15157 121.816 2.44784 120.219 3.81499C120.218 3.81648 120.218 3.81789 120.216 3.8187L120.209 3.82613C120.203 3.82924 120.2 3.83579 120.196 3.84166L120.196 3.84167ZM122.046 3.08237L122.55 4.69349L120.552 3.87419C120.995 3.52888 121.501 3.26197 122.046 3.08237L122.046 3.08237ZM120.453 4.11159L122.451 4.93089L120.94 5.71574C120.683 5.2063 120.518 4.66533 120.453 4.11157L120.453 4.11159ZM121.061 5.94004L122.759 5.05791L124.864 5.92075L122.159 7.32663C121.716 6.91155 121.345 6.44321 121.061 5.9401L121.061 5.94004ZM126.331 3.32669L127.378 6.67386L125.273 5.81102L124.334 2.81127C124.999 2.85884 125.673 3.01082 126.326 3.27088C126.324 3.288 126.324 3.30713 126.33 3.32666L126.331 3.32669ZM124.139 8.54075C124.122 8.54942 124.108 8.56286 124.097 8.57831C123.449 8.30384 122.864 7.93975 122.362 7.50918L125.173 6.04843L127.279 6.91127L124.139 8.54075ZM124.394 8.69526L127.586 7.03688L129.45 7.80118C127.878 9.07525 126.219 9.36788 124.394 8.69517L124.394 8.69526ZM129.552 7.56454L127.687 6.79883L126.622 3.39445C128.392 4.19608 129.354 5.56322 129.552 7.56461L129.552 7.56454ZM124.062 2.79806C124.061 2.79881 124.061 2.79881 124.062 2.79948L124.964 5.68395L122.858 4.82044L122.292 3.00901C122.854 2.85267 123.451 2.78102 124.062 2.798L124.062 2.79806Z" fill="#E0E0E1"/>
<path opacity="0.3" d="M54.5038 66.5696C54.5062 66.5753 54.508 66.5831 54.5111 66.5875C54.5126 66.5893 54.5118 66.5905 54.5133 66.5922C54.5147 66.594 54.5159 66.5947 54.5161 66.5957C54.5202 66.5999 54.5242 66.6041 54.5285 66.6093C54.5338 66.6143 54.5383 66.6205 54.5443 66.6242C54.5479 66.6265 54.5503 66.628 54.553 66.6304C54.5542 66.6312 54.5546 66.6332 54.5556 66.6329C55.1621 66.9842 55.8434 67.1944 56.5556 67.272C56.56 67.273 56.5636 67.2753 56.5677 67.2753C56.573 67.2761 56.5788 67.2748 56.5848 67.2744C57.9844 67.4198 59.5009 67.0466 60.8183 66.1726C62.6402 64.9624 63.4449 63.2115 63.2152 60.9687L64.8273 59.8994C64.8855 59.8608 64.9022 59.7802 64.8636 59.7209C64.8331 59.6743 64.7783 59.6542 64.728 59.6661C64.7135 59.6695 64.7006 59.6757 64.6873 59.684L63.0764 60.754C61.7725 60.0172 60.4853 59.7943 59.2305 60.092C58.6095 60.2393 57.997 60.5131 57.394 60.913C55.3965 62.2394 54.2588 64.4465 54.4946 66.5356C54.4951 66.5375 54.4963 66.5383 54.4958 66.5405L54.4981 66.5503C54.4976 66.5566 54.5012 66.563 54.5037 66.5697L54.5038 66.5696ZM54.913 64.6121L56.5295 65.0987L54.7304 66.2931C54.6934 65.7322 54.7559 65.1642 54.913 64.6121L54.913 64.6121ZM54.8714 66.5083L56.6704 65.3139L56.4728 67.0047C55.9068 66.9318 55.3665 66.7648 54.8714 66.5083L54.8714 66.5083ZM56.7262 67.0306L56.9486 65.1298L58.8438 63.8712L58.4902 66.8991C57.8978 67.0334 57.3023 67.0773 56.7262 67.0307L56.7262 67.0306ZM57.5188 61.2022L60.8771 62.213L58.982 63.4716L55.9723 62.5656C56.3846 62.042 56.8885 61.5693 57.4702 61.1744C57.4832 61.1858 57.499 61.1965 57.5187 61.2022L57.5188 61.2022ZM60.606 65.9412C60.6034 65.9604 60.6068 65.9793 60.6132 65.9975C60.0224 66.38 59.393 66.6599 58.7548 66.8341L59.1229 63.6869L61.018 62.4282L60.606 65.9412ZM60.8768 65.8168L61.2943 62.2445L62.9731 61.1294C63.146 63.1456 62.4574 64.6834 60.8767 65.8168L60.8768 65.8168ZM62.834 60.9129L61.1539 62.0273L57.7384 60.999C59.3949 59.9834 61.0666 59.9535 62.8341 60.9129L62.834 60.9129ZM55.8086 62.7837C55.8088 62.7847 55.8088 62.7847 55.8098 62.7845L58.7036 63.6558L56.8075 64.9147L54.9906 64.3669C55.1762 63.8142 55.452 63.2796 55.8085 62.7838L55.8086 62.7837Z" fill="#E0E0E1"/>
<path opacity="0.3" d="M97.205 17.6765C97.2073 17.6822 97.2092 17.69 97.2123 17.6945C97.2137 17.6962 97.213 17.6974 97.2144 17.6992C97.2159 17.7009 97.2171 17.7016 97.2173 17.7026C97.2214 17.7068 97.2254 17.711 97.2297 17.7162C97.235 17.7212 97.2395 17.7274 97.2455 17.7311C97.2491 17.7334 97.2515 17.7349 97.2541 17.7374C97.2553 17.7381 97.2558 17.7401 97.2568 17.7399C97.8633 18.0911 98.5446 18.3013 99.2568 18.3789C99.2611 18.3799 99.2647 18.3822 99.2688 18.3823C99.2741 18.3831 99.2799 18.3817 99.286 18.3813C100.686 18.5268 102.202 18.1535 103.519 17.2795C105.341 16.0694 106.146 14.3185 105.916 12.0756L107.528 11.0064C107.587 10.9677 107.603 10.8871 107.565 10.8279C107.534 10.7812 107.479 10.7611 107.429 10.773C107.415 10.7765 107.402 10.7826 107.388 10.791L105.778 11.861C104.474 11.1241 103.186 10.9012 101.932 11.1989C101.311 11.3462 100.698 11.62 100.095 12.0199C98.0976 13.3464 96.9599 15.5534 97.1958 17.6425C97.1963 17.6445 97.1975 17.6452 97.197 17.6474L97.1993 17.6572C97.1988 17.6635 97.2023 17.67 97.2049 17.6766L97.205 17.6765ZM97.6142 15.7191L99.2306 16.2057L97.4316 17.4C97.3946 16.8391 97.457 16.2712 97.6142 15.719L97.6142 15.7191ZM97.5726 17.6152L99.3716 16.4209L99.1739 18.1116C98.6079 18.0388 98.0677 17.8717 97.5725 17.6152L97.5726 17.6152ZM99.4274 18.1375L99.6498 16.2368L101.545 14.9781L101.191 18.006C100.599 18.1403 100.003 18.1843 99.4274 18.1376L99.4274 18.1375ZM100.22 12.3091L103.578 13.3199L101.683 14.5786L98.6735 13.6725C99.0857 13.149 99.5897 12.6762 100.171 12.2813C100.184 12.2927 100.2 12.3035 100.22 12.3092L100.22 12.3091ZM103.307 17.0481C103.305 17.0674 103.308 17.0862 103.314 17.1044C102.724 17.4869 102.094 17.7668 101.456 17.941L101.824 14.7938L103.719 13.5352L103.307 17.0481ZM103.578 16.9238L103.995 13.3514L105.674 12.2363C105.847 14.2525 105.159 15.7904 103.578 16.9238L103.578 16.9238ZM105.535 12.0198L103.855 13.1342L100.44 12.1059C102.096 11.0903 103.768 11.0604 105.535 12.0198L105.535 12.0198ZM98.5097 13.8907C98.51 13.8917 98.51 13.8917 98.5109 13.8914L101.405 14.7628L99.5087 16.0216L97.6918 15.4738C97.8774 14.9212 98.1531 14.3865 98.5096 13.8907L98.5097 13.8907Z" fill="#E0E0E1"/>
<path opacity="0.3" d="M175.405 21.4671C175.405 21.4732 175.403 21.4812 175.405 21.4865C175.405 21.4886 175.404 21.4895 175.405 21.4916C175.405 21.4937 175.406 21.4949 175.406 21.4959C175.408 21.5013 175.41 21.5068 175.412 21.5132C175.415 21.5198 175.417 21.5272 175.421 21.5329C175.424 21.5364 175.426 21.5387 175.427 21.542C175.428 21.5431 175.428 21.5451 175.429 21.5453C175.858 22.0991 176.41 22.5506 177.04 22.8908C177.044 22.8934 177.047 22.8968 177.05 22.8984C177.055 22.9012 177.061 22.9021 177.067 22.904C178.308 23.5661 179.854 23.7917 181.403 23.4785C183.547 23.0439 184.952 21.7253 185.584 19.5611L187.48 19.1781C187.549 19.1642 187.595 19.0958 187.581 19.0264C187.571 18.9717 187.527 18.9324 187.476 18.9245C187.462 18.9222 187.447 18.9231 187.432 18.9258L185.536 19.31C184.606 18.1362 183.498 17.4447 182.224 17.2477C181.593 17.1502 180.922 17.173 180.213 17.3163C177.863 17.7923 175.977 19.4081 175.409 21.4321C175.409 21.4341 175.409 21.4352 175.408 21.4371L175.407 21.447C175.404 21.4527 175.405 21.46 175.404 21.4671L175.405 21.4671ZM176.521 19.8081L177.835 20.8678L175.719 21.2964C175.896 20.7628 176.168 20.2602 176.521 19.808L176.521 19.8081ZM175.768 21.5488L177.885 21.1203L177.064 22.612C176.568 22.3312 176.13 21.9729 175.768 21.5488L175.768 21.5488ZM177.289 22.7314L178.212 21.0545L180.441 20.6027L178.973 23.2743C178.374 23.1755 177.806 22.9918 177.289 22.7315L177.289 22.7314ZM180.22 17.6312L182.95 19.8328L180.72 20.2847L178.273 18.3114C178.853 17.9818 179.497 17.7337 180.185 17.5871C180.193 17.6026 180.203 17.6185 180.22 17.6312L180.22 17.6312ZM181.294 23.1841C181.284 23.201 181.28 23.2197 181.279 23.239C180.588 23.3707 179.899 23.3928 179.243 23.3137L180.769 20.5371L182.999 20.0853L181.294 23.1841ZM181.592 23.171L183.324 20.0192L185.299 19.6188C184.7 21.5515 183.483 22.7166 181.591 23.1709L181.592 23.171ZM185.252 19.3658L183.276 19.7651L180.5 17.5257C182.417 17.2091 183.976 17.8112 185.252 19.3659L185.252 19.3658ZM178.04 18.4518C178.039 18.4528 178.039 18.4528 178.04 18.453L180.393 20.3504L178.162 20.8021L176.685 19.6101C177.066 19.1681 177.522 18.7768 178.039 18.4518L178.04 18.4518Z" fill="#E0E0E1"/>
<path opacity="0.3" d="M184.293 61.5589C184.288 61.5628 184.281 61.5669 184.278 61.5712C184.277 61.5731 184.275 61.5727 184.274 61.5746C184.273 61.5765 184.273 61.5779 184.272 61.5784C184.269 61.5835 184.266 61.5886 184.262 61.5943C184.259 61.6008 184.255 61.6069 184.253 61.6138C184.252 61.6179 184.251 61.6206 184.249 61.6239C184.249 61.6252 184.247 61.6262 184.248 61.6271C184.091 62.3102 184.091 63.0232 184.227 63.7266C184.227 63.7311 184.226 63.7352 184.227 63.7391C184.228 63.7444 184.231 63.7496 184.233 63.7552C184.507 65.1355 185.311 66.4745 186.535 67.4755C188.228 68.8594 190.139 69.1119 192.214 68.2308L193.711 69.4559C193.765 69.5001 193.847 69.4923 193.893 69.4379C193.928 69.3951 193.931 69.3367 193.905 69.2922C193.897 69.2793 193.888 69.2689 193.876 69.2586L192.378 68.0349C192.698 66.5717 192.531 65.276 191.877 64.1649C191.553 63.615 191.11 63.1104 190.55 62.6523C188.694 61.1347 186.249 60.6986 184.323 61.5401C184.321 61.5411 184.321 61.5425 184.319 61.5427L184.31 61.5478C184.304 61.5492 184.299 61.5544 184.293 61.5589L184.293 61.5589ZM186.284 61.3726L186.296 63.0607L184.624 61.6939C185.149 61.4931 185.71 61.3853 186.284 61.3726L186.284 61.3726ZM184.46 61.8921L186.132 63.2588L184.458 63.5686C184.361 63.0063 184.361 62.4408 184.46 61.8921L184.46 61.8921ZM184.508 63.8184L186.39 63.4703L188.151 64.91L185.154 65.4652C184.851 64.9388 184.633 64.3827 184.508 63.8184L184.508 63.8184ZM190.311 62.8568L190.336 66.3638L188.574 64.9242L188.552 61.7812C189.174 62.0207 189.774 62.3628 190.323 62.8021C190.316 62.8179 190.311 62.8362 190.311 62.8567L190.311 62.8568ZM186.693 67.2043C186.674 67.2075 186.657 67.2164 186.642 67.2278C186.102 66.7761 185.649 66.2572 185.294 65.6988L188.41 65.1223L190.172 66.5619L186.693 67.2043ZM186.892 67.4264L190.429 66.7717L191.989 68.047C190.114 68.8068 188.441 68.6024 186.892 67.4263L186.892 67.4264ZM192.155 67.8502L190.595 66.5735L190.57 63.0066C192.029 64.2899 192.55 65.8784 192.155 67.8503L192.155 67.8502ZM188.295 61.689C188.294 61.6896 188.294 61.6896 188.295 61.6904L188.316 64.7126L186.554 63.2721L186.541 61.3744C187.124 61.3888 187.716 61.4946 188.295 61.689L188.295 61.689Z" fill="#E0E0E1"/>
<path opacity="0.3" d="M153.415 77.494C153.42 77.498 153.425 77.5041 153.43 77.5066C153.432 77.5074 153.432 77.5088 153.434 77.5097C153.436 77.5106 153.438 77.5107 153.438 77.5115C153.444 77.5133 153.449 77.5152 153.456 77.5178C153.463 77.5197 153.469 77.5231 153.477 77.5237C153.481 77.524 153.484 77.5242 153.487 77.5252C153.489 77.5253 153.49 77.5268 153.491 77.5262C154.191 77.5567 154.892 77.4275 155.559 77.1665C155.563 77.1654 155.568 77.1657 155.571 77.1639C155.576 77.1621 155.581 77.1582 155.586 77.1551C156.894 76.6359 158.065 75.6029 158.828 74.2182C159.883 72.302 159.785 70.3775 158.543 68.496L159.477 66.8018C159.51 66.7405 159.488 66.6614 159.426 66.6268C159.378 66.5995 159.32 66.6071 159.281 66.641C159.269 66.6507 159.261 66.6621 159.253 66.6757L158.321 68.37C156.824 68.3207 155.58 68.7191 154.605 69.564C154.123 69.9821 153.707 70.5084 153.358 71.1421C152.201 73.2427 152.215 75.7257 153.391 77.4681C153.393 77.4696 153.394 77.4697 153.395 77.4719L153.401 77.4795C153.404 77.4854 153.41 77.4894 153.415 77.4941L153.415 77.494ZM152.872 75.5696L154.53 75.2524L153.488 77.144C153.196 76.664 152.988 76.1317 152.872 75.5696L152.872 75.5696ZM153.713 77.2695L154.754 75.3779L155.362 76.968C154.827 77.1654 154.27 77.2676 153.713 77.2695L153.713 77.2695ZM155.599 76.8735L154.916 75.0859L156.012 73.0927L157.101 75.9401C156.638 76.3335 156.131 76.6482 155.599 76.8736L155.599 76.8735ZM153.602 71.3406L157.047 70.6815L155.95 72.6746L152.863 73.2651C152.986 72.6102 153.214 71.9578 153.546 71.3385C153.563 71.3426 153.582 71.3448 153.602 71.3407L153.602 71.3406ZM158.533 74.1114C158.539 74.1297 158.551 74.1448 158.565 74.158C158.219 74.7706 157.791 75.3101 157.306 75.76L156.175 72.8001L157.271 70.807L158.533 74.1114ZM158.715 73.8758L157.431 70.5162L158.403 68.7505C159.49 70.4575 159.591 72.1394 158.715 73.8758L158.715 73.8758ZM158.179 68.623L157.206 70.3887L153.703 71.0588C154.701 69.3917 156.169 68.5911 158.179 68.623L158.179 68.623ZM152.819 73.5343C152.819 73.5351 152.819 73.5351 152.82 73.5345L155.789 72.9667L154.691 74.9605L152.827 75.3163C152.735 74.7405 152.732 74.1389 152.819 73.5344L152.819 73.5343Z" fill="#E0E0E1"/>
</svg>
