<svg id="Capa_2" data-name="Capa 2" xmlns="http://www.w3.org/2000/svg" viewBox="0 0 347.58 327.24"><defs><style>.cls-1{fill:#fff;}</style></defs><path class="cls-1" d="M297.64,290V181.68c2.8-50.4-58.24-57.6-58.24-57.6H115.56V391.2h111.6L203.4,448.32Zm-129.52,54.7V170.16H225s15.12,4.32,15.12,10.8V330.72s-1.36,11.63-11.44,13.07Z" transform="translate(-115.56 -121.92)"/><path class="cls-1" d="M447.56,317.44C431.4,293.28,373.32,290,373.32,290c-33-1.37-40.32-12.41-42.24-18.05-2.11-6.19.24-26.16.24-26.16l-38.21,65.77c-.62,1.1-.72,1.24-.37,2.45,6.78,23.4,92.58,30.66,92.58,30.66s25.05,2.49,24,30.09c-1.2,31.41-27.85,27.85-27.85,27.85l-28.47-.1c-23.55,0-21.08-20.08-21.95-32.15a7.87,7.87,0,0,0-7.7-7.21H284.57a7,7,0,0,0-6.83,5.68c-3.92,20.35,7.74,49,7.74,49,16.56,28.8,46.08,31.32,46.08,31.32H403.2c21.24,0,43.62-17.69,50.4-31.14C468.9,387.69,465,338.88,447.56,317.44Z" transform="translate(-115.56 -121.92)"/><path class="cls-1" d="M382.32,227.85c20,.32,20.68,14.68,20.68,14.68l1.28,18c0,5,3.29,6.52,5.4,6.48,13.56-.24,31,.42,42.12-.48,4.81-.39,6.71-4.81,6.84-7.08.31-5.63-.36-16.89-.48-22.56-.72-33.3-28.68-52.08-53.52-54.84-6.41-.71-26.37-1.16-26.37-1.16l24.81-59-63.24,109.8s7.26-3.81,8.4-3.84Z" transform="translate(-115.56 -121.92)"/></svg>